<svg width="48" height="48" viewBox="0 0 48 48" fill="none" xmlns="http://www.w3.org/2000/svg">
<circle cx="24" cy="24" r="24" fill="#1C1D1F"/>
<g clip-path="url(#clip0_0_63)">
<path d="M33.7617 24.1871C33.7617 23.3677 33.6952 22.7698 33.5513 22.1497H24.1947V25.848H29.6868C29.5761 26.7671 28.9782 28.1512 27.6494 29.0813L27.6308 29.2051L30.5892 31.4969L30.7941 31.5174C32.6765 29.7789 33.7617 27.2211 33.7617 24.1871Z" fill="white"/>
<path d="M24.1947 33.9313C26.8854 33.9313 29.1442 33.0454 30.7941 31.5174L27.6494 29.0813C26.8079 29.6682 25.6784 30.0779 24.1947 30.0779C21.5593 30.0779 19.3226 28.3395 18.5253 25.9366L18.4084 25.9466L15.3322 28.3273L15.292 28.4391C16.9308 31.6945 20.297 33.9313 24.1947 33.9313Z" fill="white"/>
<path d="M18.5253 25.9366C18.3149 25.3166 18.1931 24.6521 18.1931 23.9656C18.1931 23.2791 18.3149 22.6147 18.5142 21.9947L18.5086 21.8626L15.3939 19.4437L15.292 19.4921C14.6166 20.8431 14.229 22.3601 14.229 23.9656C14.229 25.5712 14.6166 27.0882 15.292 28.4391L18.5253 25.9366Z" fill="white"/>
<path d="M24.1947 17.8534C26.066 17.8534 27.3283 18.6617 28.048 19.3372L30.8605 16.5911C29.1332 14.9855 26.8854 14 24.1947 14C20.297 14 16.9308 16.2367 15.292 19.4921L18.5142 21.9947C19.3226 19.5918 21.5593 17.8534 24.1947 17.8534Z" fill="white"/>
</g>
<defs>
<clipPath id="clip0_0_63">
<rect width="20" height="20" fill="white" transform="translate(14 14)"/>
</clipPath>
</defs>
</svg>
