<svg width="36" height="36" viewBox="0 0 36 36" fill="none" xmlns="http://www.w3.org/2000/svg">
<circle cx="18" cy="18" r="18" fill="#444547"/>
<path d="M24.6 25.425V23.775C24.6 22.8998 24.2523 22.0604 23.6335 21.4416C23.0146 20.8227 22.1752 20.475 21.3 20.475H14.7C13.8248 20.475 12.9854 20.8227 12.3666 21.4416C11.7477 22.0604 11.4 22.8998 11.4 23.775V25.425" stroke="white" stroke-width="2" stroke-linecap="round" stroke-linejoin="round"/>
<path d="M18 17.175C19.8225 17.175 21.3 15.6976 21.3 13.875C21.3 12.0525 19.8225 10.575 18 10.575C16.1774 10.575 14.7 12.0525 14.7 13.875C14.7 15.6976 16.1774 17.175 18 17.175Z" stroke="white" stroke-width="2" stroke-linecap="round" stroke-linejoin="round"/>
</svg>
